<?xml version="1.0" encoding="UTF-8"?>
<svg version="1.1" xmlns="http://www.w3.org/2000/svg" width="512" height="512">
<path d="M0 0 C8.1316913 4.46596588 15.0147978 10.10936984 21.84375 16.35327148 C22.45863281 16.91401367 23.07351562 17.47475586 23.70703125 18.05249023 C24.84375 19.35327148 24.84375 19.35327148 24.84375 21.35327148 C25.65972656 20.75901367 26.47570312 20.16475586 27.31640625 19.55249023 C63.86783479 -6.31808608 110.54827464 -15.42892377 154.59375 -8.14672852 C179.4253865 -3.56876938 200.87094993 6.74326293 221.84375 20.35327148 C225.78352711 17.02757645 229.58738339 13.63974977 233.28125 10.04077148 C249.40515201 -4.49034385 271.33839466 -11.72287901 292.78125 -12.08422852 C293.56193848 -12.10654541 294.34262695 -12.1288623 295.14697266 -12.15185547 C302.16344237 -12.12413719 307.1997854 -9.80997228 312.59375 -5.39672852 C317.96321992 1.16595694 319.59736144 6.54437355 319.28125 15.11889648 C317.37903231 29.18172015 304.33841419 40.91101881 293.84375 49.35327148 C283.40597604 57.07697056 272.14847981 62.25169488 259.84375 66.35327148 C260.83375 68.66327148 261.82375 70.97327148 262.84375 73.35327148 C266.25318819 72.08742053 269.12772829 70.6043551 272.15625 68.60327148 C293.09553351 55.93438545 318.72795469 53.39427308 342.37109375 58.43530273 C350.37811281 60.55189382 357.68013257 63.48677122 362.09375 70.85327148 C365.23597383 77.13771914 365.93841534 83.70899278 364.3125 90.60717773 C361.16092738 99.63369279 354.49785749 104.14436881 346.84375 109.35327148 C345.66619141 110.16344727 345.66619141 110.16344727 344.46484375 110.98999023 C324.41574548 123.91504343 298.22507164 127.79647434 275.03125 122.85327148 C271.9684375 122.11077148 271.9684375 122.11077148 268.84375 121.35327148 C268.18375 125.97327148 267.52375 130.59327148 266.84375 135.35327148 C268.9475 134.87889648 271.05125 134.40452148 273.21875 133.91577148 C299.37811621 128.34771362 328.69748536 131.20166927 351.84375 145.35327148 C358.1983988 150.00546113 361.48752967 154.93842354 362.78125 162.72827148 C363.24811161 169.32126834 361.48138123 175.03379016 357.6953125 180.39624023 C354.74124886 183.77408223 351.36384262 185.58799728 347.34375 187.47827148 C346.63959961 187.81810059 345.93544922 188.15792969 345.20996094 188.50805664 C330.7111135 195.32546052 316.0285163 197.74244413 300.09375 197.66577148 C298.24668457 197.65731201 298.24668457 197.65731201 296.36230469 197.64868164 C277.86200638 197.40249849 260.87268159 193.14293562 245.078125 183.35717773 C242.93948214 182.19440145 242.93948214 182.19440145 240.79296875 182.44702148 C238.23005642 183.63859595 236.81502096 185.20614447 234.90625 187.29077148 C224.29417571 198.19618767 211.42199059 206.56415119 197.84375 213.35327148 C197.86695313 214.26463867 197.89015625 215.17600586 197.9140625 216.11499023 C198.13009176 231.62280526 197.47156401 247.45171038 192.84375 262.35327148 C193.96910156 262.79026367 193.96910156 262.79026367 195.1171875 263.23608398 C216.58390748 271.83358645 216.58390748 271.83358645 221.84375 282.35327148 C222.47338442 286.26656896 222.59818097 289.82137348 220.8203125 293.43139648 C217.64562971 297.60584126 214.54217134 299.36513008 209.38671875 300.14233398 C197.39089308 301.13737943 186.75894017 299.56279406 175.84375 294.35327148 C176.39223495 297.27852457 177.05395008 300.05805998 177.90625 302.91577148 C179.30000832 308.3555894 180.41307174 316.21462801 177.84375 321.35327148 C178.936875 321.27077148 180.03 321.18827148 181.15625 321.10327148 C191.34875556 321.13935115 199.51074215 326.38767336 206.71484375 333.09545898 C214.65096782 341.32172092 218.0759579 352.01728817 217.9453125 363.31811523 C217.7927249 366.37573604 217.34689718 369.33438839 216.84375 372.35327148 C217.730625 372.88952148 218.6175 373.42577148 219.53125 373.97827148 C224.9969503 377.65215023 229.31528254 382.86603556 230.84375 389.35327148 C231.91490075 398.34622945 230.61675125 404.71646948 225.84375 412.35327148 C225.39386719 413.22338867 224.94398438 414.09350586 224.48046875 414.98999023 C221.47094504 419.33548389 216.8112598 420.20174024 211.84375 421.35327148 C203.13115072 422.48017055 196.05972965 421.54302496 188.84375 416.35327148 C185.13985785 413.04958802 183.11414003 410.38413347 181.84375 405.54077148 C180.18054232 402.07191657 180.18054232 402.07191657 176.8671875 401.61108398 C174.38893268 401.30859892 171.9066818 401.03753437 169.421875 400.79467773 C159.35086057 399.55229277 150.54802641 393.16688517 144.2265625 385.41186523 C139.15721034 377.86511781 136.69629958 370.20206374 136.71875 361.16577148 C136.71617187 360.1203418 136.71359375 359.07491211 136.7109375 357.99780273 C136.84375 355.35327148 136.84375 355.35327148 137.84375 353.35327148 C136.750625 353.43577148 135.6575 353.51827148 134.53125 353.60327148 C124.33874444 353.56719182 116.17675785 348.31886961 108.97265625 341.61108398 C102.81056013 335.22370693 99.25255629 327.26353678 98.15625 318.47827148 C97.60152022 315.58538158 97.19777419 314.63287409 94.85546875 312.78295898 C93.13890548 311.80587942 91.40166774 310.86448098 89.6484375 309.95483398 C83.93209431 306.69062687 79.19407513 301.84009463 74.69140625 297.07592773 C72.99783084 295.09252448 72.99783084 295.09252448 70.65625 295.41577148 C69.01444936 295.96303836 67.37342344 296.51265993 65.734375 297.06811523 C54.99006054 300.69161726 43.78150423 302.19107999 32.84375 298.35327148 C29.94678642 296.52692488 28.28353966 295.05293685 26.46875 292.16577148 C25.33641618 287.07026928 25.76283671 282.32711315 28.28125 277.72827148 C35.3293402 271.19589521 45.79273556 263.35327148 55.84375 263.35327148 C55.56660156 262.35166992 55.28945312 261.35006836 55.00390625 260.31811523 C54.63780048 258.9757274 54.27192749 257.63327605 53.90625 256.29077148 C53.72384766 255.63399414 53.54144531 254.9772168 53.35351562 254.30053711 C53.17626953 253.64633789 52.99902344 252.99213867 52.81640625 252.31811523 C52.65406494 251.72635498 52.49172363 251.13459473 52.32446289 250.52490234 C51.14376005 245.19105177 50.72096381 239.99787412 50.74609375 234.54467773 C50.74931641 233.30395508 50.75253906 232.06323242 50.75585938 230.78491211 C50.76423828 229.5080957 50.77261719 228.2312793 50.78125 226.91577148 C50.78576172 225.61188477 50.79027344 224.30799805 50.79492188 222.96459961 C50.80665749 219.76077596 50.82307637 216.55704786 50.84375 213.35327148 C49.41095703 212.62624023 49.41095703 212.62624023 47.94921875 211.88452148 C32.5834221 203.97007829 18.93175455 193.73120972 6.84375 181.35327148 C6.17472656 181.78897461 5.50570312 182.22467773 4.81640625 182.67358398 C-19.66229414 197.85366396 -50.79181333 201.71422114 -78.74023438 195.19873047 C-89.53261528 192.38911397 -102.02223337 188.69950555 -109.40625 179.91577148 C-109.88578125 179.36018555 -110.3653125 178.80459961 -110.859375 178.23217773 C-114.90510341 172.37074591 -114.85512143 166.23446715 -114.15625 159.35327148 C-112.36692394 152.64896119 -107.77263858 148.16953552 -102.15625 144.35327148 C-87.67589281 136.14773574 -71.60292011 132.53861708 -55.15625 131.35327148 C-54.16753906 131.28108398 -53.17882812 131.20889648 -52.16015625 131.13452148 C-41.03728279 130.75587047 -28.92090672 132.51038449 -18.15625 135.35327148 C-18.3728125 134.34006836 -18.3728125 134.34006836 -18.59375 133.30639648 C-18.779375 132.41436523 -18.965 131.52233398 -19.15625 130.60327148 C-19.341875 129.72155273 -19.5275 128.83983398 -19.71875 127.93139648 C-20.15625 125.35327148 -20.15625 125.35327148 -20.15625 121.35327148 C-20.99542969 121.56983398 -21.83460937 121.78639648 -22.69921875 122.00952148 C-49.11610899 128.12532887 -76.04869733 123.69180416 -99.15625 109.35327148 C-107.74934322 103.29584511 -115.2264337 97.15347151 -117.15625 86.35327148 C-117.52037828 78.83509355 -116.00303502 73.13771791 -111.15625 67.35327148 C-102.09587545 57.86145053 -87.68984006 56.41796086 -75.19799805 56.01660156 C-52.40988436 55.67295217 -33.29834633 62.42571525 -14.15625 74.35327148 C-13.16625 71.38327148 -12.17625 68.41327148 -11.15625 65.35327148 C-12.46980469 65.09674805 -13.78335938 64.84022461 -15.13671875 64.57592773 C-19.88683084 63.51446574 -24.08966313 61.88984215 -28.46875 59.79077148 C-29.20150146 59.44216064 -29.93425293 59.0935498 -30.68920898 58.734375 C-37.51571505 55.37150897 -43.3014621 51.2278057 -49.15625 46.35327148 C-49.86910156 45.8028418 -50.58195312 45.25241211 -51.31640625 44.68530273 C-60.16561707 37.56019263 -69.93927244 26.23461835 -71.5234375 14.67358398 C-71.82805629 8.20491438 -70.81356999 2.76284506 -67.15625 -2.64672852 C-50.20127181 -21.15915773 -18.97444243 -10.05655944 0 0 Z " fill="#FEACC0" transform="translate(136.15625,58.646728515625)"/>
<path d="M0 0 C5.1152592 4.67266231 7.36372775 10.26316518 7.8515625 17.15234375 C7.55168397 24.40940425 5.07237243 30.50197889 -0.24609375 35.515625 C-2.63429437 37.15188281 -5.12939157 38.41023428 -7.74609375 39.640625 C-8.80231934 40.15036865 -8.80231934 40.15036865 -9.87988281 40.67041016 C-24.37873025 47.48781404 -39.06132745 49.90479765 -54.99609375 49.828125 C-56.84315918 49.81966553 -56.84315918 49.81966553 -58.72753906 49.81103516 C-79.25638155 49.5378582 -96.63193344 43.71012189 -114.24609375 33.515625 C-112.83793919 29.40233141 -110.85169146 26.56642217 -108.12109375 23.203125 C-104.52582461 18.50384235 -101.61858077 13.81612812 -98.99609375 8.515625 C-98.66125977 7.84015625 -98.32642578 7.1646875 -97.98144531 6.46875 C-95.96819594 2.29341964 -94.38739669 -1.91232069 -92.87109375 -6.296875 C-90.91814735 -11.02876809 -90.91814735 -11.02876809 -88.28125 -12.81640625 C-85.58402178 -13.72745006 -83.07371978 -14.13497408 -80.24609375 -14.484375 C-78.37244141 -14.78021484 -78.37244141 -14.78021484 -76.4609375 -15.08203125 C-51.65496707 -18.80562507 -20.4173786 -16.31901101 0 0 Z " fill="#FF6389" transform="translate(491.24609375,206.484375)"/>
<path d="M0 0 C6.72390842 -0.22889901 13.2954368 0.67661528 19.94140625 1.59375 C21.31087402 1.78263794 21.31087402 1.78263794 22.70800781 1.9753418 C31.60385127 3.2978528 31.60385127 3.2978528 35.00390625 5.21875 C36.52197623 8.20254272 37.75965682 11.11819316 39.00390625 14.21875 C44.05098744 26.0814146 49.76910507 37.98394882 59.00390625 47.21875 C59.0703125 49.09765625 59.0703125 49.09765625 58.00390625 51.21875 C55.64625768 52.74500126 53.46128038 53.96197741 50.94140625 55.15625 C49.86971191 55.67566162 49.86971191 55.67566162 48.77636719 56.20556641 C22.21541031 68.69491691 -9.54622252 70.48914633 -37.27734375 60.7578125 C-44.71322614 57.98177318 -52.02010923 54.99787444 -57.24609375 48.78125 C-57.725625 48.22566406 -58.20515625 47.67007813 -58.69921875 47.09765625 C-62.74494716 41.23622442 -62.69496518 35.09994566 -61.99609375 28.21875 C-60.20676769 21.51443971 -55.61248233 17.03501403 -49.99609375 13.21875 C-34.4517863 4.41030911 -17.57176524 1.28294505 0 0 Z " fill="#FF6389" transform="translate(83.99609375,189.78125)"/>
<path d="M0 0 C5.06824926 5.06824926 7.30178826 10.83525248 7.4375 17.9375 C7.34913234 25.43770514 5.1246753 30.56993659 0.1875 36.1875 C-3.31358761 39.0901589 -7.05409355 41.62976568 -10.8125 44.1875 C-11.59753906 44.72761719 -12.38257813 45.26773438 -13.19140625 45.82421875 C-33.29342109 58.78338568 -59.3063759 62.49754353 -82.5625 57.75 C-88.60329498 56.39670502 -88.60329498 56.39670502 -89.8125 55.1875 C-89.92217721 53.53384701 -89.96841011 51.87591699 -89.98828125 50.21875 C-90.22822615 38.54475133 -90.81460916 27.68780544 -93.97265625 16.41796875 C-94.8125 13.1875 -94.8125 13.1875 -94.8125 9.1875 C-71.15664183 -10.5190665 -26.46983992 -17.05834128 0 0 Z " fill="#FF6389" transform="translate(493.8125,123.8125)"/>
<path d="M0 0 C-0.43679069 4.07671308 -0.93217778 7.97699519 -2 11.9375 C-4.11038352 19.96355553 -4.22936354 28.31054613 -4.5625 36.5625 C-4.62727539 38.07553711 -4.62727539 38.07553711 -4.69335938 39.61914062 C-4.79829618 42.07932575 -4.90045701 44.53959175 -5 47 C-31.07926979 53.73013414 -57.43492358 50.08376238 -80.953125 36.890625 C-89.9070743 31.33458467 -98.4874395 24.96313758 -101.5546875 14.4921875 C-102.68219962 8.18207583 -102.05659828 2.19980966 -98.8125 -3.375 C-92.45427422 -12.20086581 -83.96498509 -15.14596129 -73.5625 -17.25 C-47.03425627 -21.01529911 -21.94428955 -15.29591369 0 0 Z " fill="#FF6389" transform="translate(121,133)"/>
<path d="M0 0 C9.81993321 5.39510925 19.06825192 12.35725993 25.84399414 21.35375977 C23.53844113 24.52389515 21.05452058 27.1253355 18.09399414 29.66625977 C6.21741096 39.92131683 -2.43295463 51.72853931 -10.15600586 65.35375977 C-25.07762582 64.33637659 -39.09077843 54.72104712 -50.15600586 45.35375977 C-51.06092773 44.66733398 -51.06092773 44.66733398 -51.98413086 43.96704102 C-60.68546823 37.19707526 -69.99669061 25.81429443 -71.52319336 14.67407227 C-71.82781215 8.20540266 -70.81332585 2.76333334 -67.15600586 -2.64624023 C-50.19963595 -21.16018901 -18.97637204 -10.05372442 0 0 Z " fill="#FF6389" transform="translate(136.156005859375,58.646240234375)"/>
<path d="M0 0 C0.76932861 -0.01861084 1.53865723 -0.03722168 2.33129883 -0.05639648 C9.24866329 0.02129281 14.30993968 2.40131428 19.625 6.75 C24.99446992 13.31268546 26.62861144 18.69110206 26.3125 27.265625 C24.41028231 41.32844867 11.36966419 53.05774732 0.875 61.5 C-6.38763756 66.8741753 -13.84968622 71.07448762 -22.1875 74.5625 C-22.90180176 74.8618042 -23.61610352 75.1611084 -24.35205078 75.46948242 C-31.76348307 78.40680096 -31.76348307 78.40680096 -35.125 77.5 C-36.83258603 75.20073695 -38.11613914 73.13295606 -39.4375 70.625 C-43.13554206 64.04304287 -47.19326809 58.23837129 -52.125 52.5 C-52.67542969 51.81679687 -53.22585938 51.13359375 -53.79296875 50.4296875 C-57.97410898 45.36464827 -62.74196603 41.45210524 -67.96484375 37.48046875 C-68.67769531 36.82691406 -69.39054687 36.17335937 -70.125 35.5 C-70.125 31.86818198 -69.01298514 30.95589265 -66.57128906 28.42651367 C-48.57708487 10.65877476 -25.41322407 0.39626386 0 0 Z " fill="#FF6389" transform="translate(429.125,46.5)"/>
<path d="M0 0 C3.14520209 0.50729066 5.92139217 1.35540717 8.875 2.5 C15.35514406 4.75539819 22.20414906 4.74034298 29 5 C29.37125 6.010625 29.7425 7.02125 30.125 8.0625 C30.74823586 9.70900218 31.37356189 11.3547135 32 13 C32.41378906 14.1034375 32.82757813 15.206875 33.25390625 16.34375 C46.84577517 51.60113204 72.19431016 80.86645629 107.015625 96.37890625 C111.26881189 98.17887936 115.57640699 99.46362921 120.09375 100.4296875 C120.7228125 100.61789062 121.351875 100.80609375 122 101 C122.33 101.66 122.66 102.32 123 103 C115.84537236 107.14117982 109.18734897 108.13271576 101 107 C94.1817973 104.88336015 88.76026095 101.12831456 85 95 C84.67 93.741875 84.34 92.48375 84 91.1875 C82.33679232 87.71864508 82.33679232 87.71864508 79.0234375 87.2578125 C76.54518268 86.95532744 74.0629318 86.68426288 71.578125 86.44140625 C61.50711057 85.19902128 52.70427641 78.81361369 46.3828125 71.05859375 C41.31346034 63.51184632 38.85254958 55.84879226 38.875 46.8125 C38.87113281 45.24435547 38.87113281 45.24435547 38.8671875 43.64453125 C39 41 39 41 40 39 C38.906875 39.0825 37.81375 39.165 36.6875 39.25 C26.49499444 39.21392033 18.33300785 33.96559812 11.12890625 27.2578125 C3.84383206 19.70640227 0.51800172 10.36003432 0 0 Z " fill="#FF6389" transform="translate(234,373)"/>
<path d="M0 0 C0.66 0 1.32 0 2 0 C4.81150895 6.23421549 6.14218705 11.26971305 6.125 18.1875 C6.12886719 19.75564453 6.12886719 19.75564453 6.1328125 21.35546875 C6 24 6 24 5 26 C6.093125 25.9175 7.18625 25.835 8.3125 25.75 C18.50500556 25.78607967 26.66699215 31.03440188 33.87109375 37.7421875 C41.80721782 45.96844944 45.2322079 56.66401669 45.1015625 67.96484375 C44.9489749 71.02246456 44.50314718 73.9811169 44 77 C44.886875 77.53625 45.77375 78.0725 46.6875 78.625 C52.1532003 82.29887874 56.47153254 87.51276407 58 94 C59.01052472 102.48396581 58.35570082 110.05168288 53 117 C51.68576672 117.70357169 50.35367325 118.3756676 49 119 C48.93530518 118.41210693 48.87061035 117.82421387 48.80395508 117.21850586 C44.57975379 80.03465672 26.47957037 46.62732973 -3 23 C-6.90039209 20.18074005 -10.92960148 17.56672896 -15 15 C-11.11713016 11.05516947 -7.07264091 7.3907139 -2.890625 3.76953125 C-0.92091997 2.13136012 -0.92091997 2.13136012 0 0 Z " fill="#FF6389" transform="translate(309,354)"/>
<path d="M0 0 C0.49628906 1.18335938 0.99257812 2.36671875 1.50390625 3.5859375 C4.9532318 11.65855459 8.26451551 19.20977745 13.75 26.15234375 C15 28 15 28 15 31 C12.96123051 31.81974263 10.91883925 32.6304807 8.875 33.4375 C7.73804688 33.88996094 6.60109375 34.34242188 5.4296875 34.80859375 C-3.91021164 38.05309174 -14.64718935 38.28168795 -24 35 C-26.89696358 33.17365339 -28.56021034 31.69966536 -30.375 28.8125 C-31.50733382 23.7169978 -31.08091329 18.97384166 -28.5625 14.375 C-21.05412069 7.4160143 -10.63186365 0 0 0 Z " fill="#FF82A0" transform="translate(193,322)"/>
<path d="M0 0 C10.78864728 1.56609396 20.62825765 6.90771141 28 15 C30.5622725 19.20280341 30.89703448 23.19965331 30 28 C28.16771426 31.69243894 25.81207991 34.19939665 22.01953125 35.875 C10.57525062 38.87677852 -2.91510226 37.65577216 -13.25 31.8125 C-14.1575 31.214375 -15.065 30.61625 -16 30 C-12.43349169 23.69002375 -12.43349169 23.69002375 -10.57421875 20.73046875 C-7.07819948 15.13864465 -4.39629948 9.50839835 -1.98046875 3.37109375 C-1 1 -1 1 0 0 Z " fill="#FF82A0" transform="translate(328,322)"/>
<path d="M0 0 C0.91112045 -0.00953201 1.82224091 -0.01906403 2.76097107 -0.02888489 C4.24066124 -0.02751778 4.24066124 -0.02751778 5.75024414 -0.02612305 C6.76131729 -0.03040817 7.77239044 -0.0346933 8.81410217 -0.03910828 C10.95516205 -0.0448584 13.09624147 -0.04534684 15.23730469 -0.04101562 C18.51864882 -0.03785792 21.79908986 -0.06129893 25.08032227 -0.08666992 C27.15779508 -0.08894301 29.23527033 -0.08964637 31.31274414 -0.08862305 C32.29718002 -0.09783279 33.28161591 -0.10704254 34.29588318 -0.11653137 C35.21015579 -0.11030258 36.12442841 -0.10407379 37.06640625 -0.09765625 C38.27314247 -0.09860039 38.27314247 -0.09860039 39.5042572 -0.0995636 C42.1491217 0.37318456 43.04446927 1.10209937 44.59790039 3.2746582 C44.71616246 10.25212007 42.24001972 14.21564952 37.59790039 19.2746582 C30.86872602 25.4991445 24.97470439 26.78219584 16.00805664 26.5559082 C8.42280365 25.93032033 2.60116644 23.08959211 -2.40209961 17.2746582 C-7.58916883 9.28272933 -7.58916883 9.28272933 -7.15209961 4.59106445 C-5.79999206 0.41502394 -4.07095503 0.02333781 0 0 Z " fill="#FF6389" transform="translate(241.402099609375,167.725341796875)"/>
<path d="M0 0 C8.88475366 2.45171469 17.79581834 7.19372752 23 15 C22.86376027 18.7465925 22.59082705 21.18193178 20.375 24.25 C13.28326374 29.47548987 6.65283928 29.90658386 -2 29 C-9.4555074 27.2379614 -15.75498064 24.4250264 -20.375 18.125 C-21.61149736 13.92090896 -21.58615511 10.32656157 -19.8125 6.3125 C-14.16129965 -0.89765217 -8.68639482 -1.11139058 0 0 Z " fill="#FF82A0" transform="translate(230,294)"/>
<path d="M0 0 C2.93963504 2.58331564 4.76015002 4.77060216 5.34765625 8.73828125 C5.54329607 13.25500922 4.97450072 16.19760255 2.0625 19.8125 C-3.50300682 25.21899234 -11.52988018 27.96492494 -19.25 27.9375 C-26.22303741 27.80055 -31.35213677 27.61236832 -36.58984375 22.61328125 C-38.54110116 20.00594888 -39.05372903 18.1294173 -38.73828125 14.89453125 C-36.22442648 8.35850884 -29.19288265 4.71064879 -23.1875 1.875 C-16.00112959 -1.2243849 -7.47877133 -3.02333309 0 0 Z " fill="#FF82A0" transform="translate(305.9375,294.1875)"/>
<path d="M0 0 C2 3 2 3 1.88671875 4.9921875 C0.69745153 7.68506569 -0.72400138 8.52553434 -3.1875 10.125 C-4.08984375 10.72957031 -4.9921875 11.33414063 -5.921875 11.95703125 C-6.93765625 12.63121094 -7.9534375 13.30539063 -9 14 C-28.02264427 26.95123172 -42.83263607 41.66527214 -53.21875 62.4375 C-55 65 -55 65 -57.71875 65.875 C-58.4715625 65.91625 -59.224375 65.9575 -60 66 C-61.625 64.375 -61.625 64.375 -63 62 C-59.73795554 49.22517784 -50.77957922 38.46526064 -42 29 C-41.49839355 28.45456543 -40.99678711 27.90913086 -40.47998047 27.34716797 C-13.4777851 -1.70129418 -13.4777851 -1.70129418 0 0 Z " fill="#FFC1CF" transform="translate(190,75)"/>
<path d="M0 0 C3.70671844 1.29079394 6.31962743 3.23183742 8.9375 6.1875 C10.88252742 11.336102 10.6050948 16.03344191 9 21.25 C6.26264897 25.01385766 3.25944535 27.15319251 -1 29 C-5.35631087 29.67597927 -7.29259984 29.37450597 -11.1875 27.3125 C-14.90038355 24.25968464 -17.46933176 21.59200472 -19 17 C-19.54030113 11.27280804 -18.6516353 8.44117806 -15 4 C-10.67942406 -0.82887899 -6.11206047 -0.94398438 0 0 Z " fill="#080707" transform="translate(198,137)"/>
<path d="M0 0 C3.90098666 1.30032889 5.6227828 2.58307572 8.375 5.625 C10.72731294 10.51057303 11.0582613 14.8064304 9.33984375 19.9921875 C7.05101066 24.60948715 3.84255312 27.27707057 -1 29 C-5.80948342 29.68706906 -9.27177175 29.03975472 -13.421875 26.39453125 C-17.39228742 22.88602324 -18.79374246 18.4953672 -19.5 13.375 C-18.73726134 8.22651406 -16.26946781 5.41881696 -12.875 1.625 C-8.60683378 -0.78744178 -4.79173599 -0.62300259 0 0 Z " fill="#080606" transform="translate(331,137)"/>
<path d="M0 0 C3.25 2.1875 3.25 2.1875 5.25 5.1875 C5.16755154 9.06257778 4.76762199 10.66987801 2 13.4375 C-4.18221089 17.3716342 -9.54883482 17.85905773 -16.75 17.1875 C-21.19393248 16.07040138 -25.17321575 14.05267637 -27.75 10.1875 C-28 6.75 -28 6.75 -26.75 3.1875 C-20.39482557 -4.05486402 -8.18520632 -3.85361904 0 0 Z " fill="#FF8FAA" transform="translate(353.75,178.8125)"/>
<path d="M0 0 C2.9971205 1.23372848 5.88110574 2.66387934 7.625 5.43359375 C8.125 8.30859375 8.125 8.30859375 7.625 11.43359375 C4.02877705 15.95455974 0.51811361 18.09041062 -5.20703125 18.76953125 C-11.70723486 18.85472396 -17.07134996 18.49972545 -22.375 14.43359375 C-24.72548538 10.90786568 -25.03897817 9.5834573 -24.375 5.43359375 C-18.08945838 -1.79670719 -8.93878801 -2.13178332 0 0 Z " fill="#FF8FAA" transform="translate(186.375,177.56640625)"/>
<path d="M0 0 C0.66 0.66 1.32 1.32 2 2 C1.67028521 5.29714793 1.3773161 6.6226839 -1 9 C-3.81854693 9.51708231 -6.59944623 9.94052616 -9.4375 10.3125 C-17.30619892 11.43368962 -24.86283604 13.10454942 -32.50366211 15.28637695 C-37.34339892 16.65058739 -41.96860452 17.68107001 -47 18 C-49 16 -49 16 -49.125 13.375 C-49.08375 12.59125 -49.0425 11.8075 -49 11 C-35.04355566 4.22012523 -15.79946257 -2.33057206 0 0 Z " fill="#FFC1CF" transform="translate(253,56)"/>
<path d="M0 0 C0.625 2.875 0.625 2.875 1 6 C-1.81394468 8.81394468 -5.03904698 8.98597909 -8.8125 9.75 C-15.90487054 11.26737799 -21.76725125 13.46117269 -28.16796875 16.92578125 C-31.55067078 18.20887512 -33.53771495 17.87711221 -37 17 C-37.33 15.02 -37.66 13.04 -38 11 C-33.59579113 7.84045885 -29.33566372 5.72051544 -24.25 3.875 C-23.54697754 3.61710693 -22.84395508 3.35921387 -22.11962891 3.09350586 C-14.80571054 0.47563675 -7.76481075 -2.04337125 0 0 Z " fill="#FFA0B6" transform="translate(431,55)"/>
<path d="M0 0 C6.43086197 0.68173259 12.16170618 2.19343632 18.22753906 4.40551758 C19.08605469 4.70135742 19.94457031 4.99719727 20.82910156 5.30200195 C25.70376195 7.038131 29.91777167 8.85175167 33.97753906 12.09301758 C34.47753906 14.71801758 34.47753906 14.71801758 33.97753906 17.09301758 C33.31753906 17.75301758 32.65753906 18.41301758 31.97753906 19.09301758 C27.22587419 18.7476931 23.31697428 17.09781603 18.97753906 15.21801758 C12.60824087 12.52549435 6.5470469 10.96727481 -0.29199219 9.83129883 C-3.02246094 9.09301758 -3.02246094 9.09301758 -5.02246094 6.09301758 C-4.61760258 2.75293611 -3.75864762 0.17286875 0 0 Z " fill="#FFA0B7" transform="translate(93.0224609375,53.906982421875)"/>
<path d="M0 0 C1.33224609 -0.01836914 1.33224609 -0.01836914 2.69140625 -0.03710938 C3.54347656 -0.03904297 4.39554687 -0.04097656 5.2734375 -0.04296875 C6.42078369 -0.04913208 6.42078369 -0.04913208 7.59130859 -0.05541992 C9.625 0.1875 9.625 0.1875 12.625 2.1875 C12.875 5.25 12.875 5.25 12.625 8.1875 C11.07567043 9.73682957 9.54667269 9.38626384 7.390625 9.46875 C6.51196777 9.50581055 5.63331055 9.54287109 4.72802734 9.58105469 C3.31577881 9.63374512 3.31577881 9.63374512 1.875 9.6875 C-5.45492755 9.97826166 -12.69112892 10.41726885 -19.9765625 11.296875 C-22.375 11.1875 -22.375 11.1875 -24.2109375 9.86328125 C-25.375 8.1875 -25.375 8.1875 -25.375 5.625 C-24.375 3.1875 -24.375 3.1875 -22.375 1.9375 C-15.04256352 0.10439088 -7.5227013 0.00560559 0 0 Z " fill="#FFA0B7" transform="translate(457.375,123.8125)"/>
<path d="M0 0 C1.32100708 -0.00604248 1.32100708 -0.00604248 2.66870117 -0.01220703 C3.60560791 -0.00302246 4.54251465 0.00616211 5.5078125 0.015625 C6.45567627 0.02094238 7.40354004 0.02625977 8.38012695 0.03173828 C26.64543805 0.27825055 26.64543805 0.27825055 30.6328125 4.265625 C30.8828125 6.765625 30.8828125 6.765625 30.6328125 9.265625 C28.6328125 11.265625 28.6328125 11.265625 25.5703125 11.27734375 C24.2709375 11.17035156 22.9715625 11.06335938 21.6328125 10.953125 C20.19280884 10.83986068 18.75269939 10.7279353 17.3125 10.6171875 C16.55420898 10.55692383 15.79591797 10.49666016 15.01464844 10.43457031 C12.55706441 10.26025213 10.10220188 10.14158828 7.640625 10.0390625 C6.41859375 9.98552612 6.41859375 9.98552612 5.171875 9.9309082 C3.58098777 9.86317322 1.98982157 9.80166174 0.3984375 9.74682617 C-5.14425923 9.48855327 -5.14425923 9.48855327 -7.3671875 7.265625 C-6.83270764 1.92082635 -5.38329475 0.01531521 0 0 Z " fill="#FFA0B7" transform="translate(57.3671875,123.734375)"/>
<path d="M0 0 C0.66 0.66 1.32 1.32 2 2 C1.8125 4.5 1.8125 4.5 1 7 C-2.10965878 9.07310585 -4.26802515 9.67246462 -7.875 10.5 C-10.94598457 11.20809669 -13.795495 11.91643249 -16.71484375 13.109375 C-19.5763927 14.22464536 -21.10942199 13.93748476 -24 13 C-26 11 -26 11 -26.1875 8.625 C-24.51960125 4.93806592 -22.35089058 4.35478146 -18.6796875 2.91796875 C-5.38039805 -1.63791029 -5.38039805 -1.63791029 0 0 Z " fill="#FF9FB6" transform="translate(68,203)"/>
<path d="M0 0 C5.58288625 0.10946836 10.5978284 1.70693974 15.875 3.4375 C16.87503052 3.7634314 16.87503052 3.7634314 17.89526367 4.09594727 C20.8139212 5.08973131 22.79146852 5.79146852 25 8 C24.625 11.125 24.625 11.125 24 14 C18.10917382 15.67758389 13.76848087 14.02616684 8.1875 12.125 C7.31673828 11.84269531 6.44597656 11.56039062 5.54882812 11.26953125 C-0.82787093 9.17212907 -0.82787093 9.17212907 -2 8 C-2.1875 5.0625 -2.1875 5.0625 -2 2 C-1.34 1.34 -0.68 0.68 0 0 Z " fill="#FFA0B6" transform="translate(453,202)"/>
<path d="M0 0 C4.4077219 0.24318466 6.93060908 3.51765199 9.8125 6.5 C10.34004883 7.03955322 10.86759766 7.57910645 11.41113281 8.13500977 C22.87597794 20.01282831 22.87597794 20.01282831 23.171875 24.75390625 C23.11515625 25.49511719 23.0584375 26.23632812 23 27 C21.35 27.33 19.7 27.66 18 28 C17.2265625 27.0821875 16.453125 26.164375 15.65625 25.21875 C14.60477609 23.97864968 13.552649 22.73910301 12.5 21.5 C11.95770752 20.8594165 11.41541504 20.21883301 10.85668945 19.55883789 C7.22855713 15.31429356 3.46197446 11.40326335 -0.76953125 7.74609375 C-2 6 -2 6 -1.76171875 3.34765625 C-1 1 -1 1 0 0 Z " fill="#FFC0CE" transform="translate(305,388)"/>
<path d="M0 0 C0.87591797 0.00322266 1.75183594 0.00644531 2.65429688 0.00976562 C3.52634766 -0.00634766 4.39839844 -0.02246094 5.296875 -0.0390625 C6.55467773 -0.0400293 6.55467773 -0.0400293 7.83789062 -0.04101562 C8.60544678 -0.04399658 9.37300293 -0.04697754 10.16381836 -0.05004883 C12.75339648 0.41957974 13.66784977 1.2223319 15.21679688 3.32226562 C14.79574424 7.74331826 14.79574424 7.74331826 13.21679688 9.32226562 C9.74470881 9.57325486 6.25939068 9.50748659 2.77929688 9.50976562 C1.79896484 9.52201172 0.81863281 9.53425781 -0.19140625 9.546875 C-1.12791016 9.54880859 -2.06441406 9.55074219 -3.02929688 9.55273438 C-3.89224365 9.55684326 -4.75519043 9.56095215 -5.64428711 9.56518555 C-7.78320312 9.32226562 -7.78320312 9.32226562 -9.78320312 7.32226562 C-9.08801282 0.37036256 -6.20466679 0.05254144 0 0 Z " fill="#FFA0B7" transform="translate(84.783203125,199.677734375)"/>
<path d="M0 0 C0.87591797 0.00322266 1.75183594 0.00644531 2.65429688 0.00976562 C3.52634766 -0.00634766 4.39839844 -0.02246094 5.296875 -0.0390625 C6.55467773 -0.0400293 6.55467773 -0.0400293 7.83789062 -0.04101562 C8.60544678 -0.04399658 9.37300293 -0.04697754 10.16381836 -0.05004883 C12.75339648 0.41957974 13.66784977 1.2223319 15.21679688 3.32226562 C14.79574424 7.74331826 14.79574424 7.74331826 13.21679688 9.32226562 C9.91162754 9.57262536 6.59283647 9.50748514 3.27929688 9.50976562 C2.34666016 9.52201172 1.41402344 9.53425781 0.453125 9.546875 C-0.43826172 9.54880859 -1.32964844 9.55074219 -2.24804688 9.55273438 C-3.06909912 9.55684326 -3.89015137 9.56095215 -4.73608398 9.56518555 C-6.78320312 9.32226562 -6.78320312 9.32226562 -8.78320312 7.32226562 C-9.03320312 4.82226562 -9.03320312 4.82226562 -8.78320312 2.32226562 C-5.96326442 -0.49767308 -3.85416153 0.03263724 0 0 Z " fill="#FFA1B7" transform="translate(429.783203125,199.677734375)"/>
<path d="M0 0 C2.296875 -0.28515625 2.296875 -0.28515625 5 0 C9.36915109 4.80413295 11.72040757 10.56937401 12 17 C10.35 17.33 8.7 17.66 7 18 C5.76624909 16.03477622 4.53621004 14.0676775 3.31640625 12.09375 C2.29648826 10.4715659 1.22139817 8.88400405 0.125 7.3125 C-1.27205856 4.44076851 -0.94070598 2.99315538 0 0 Z " fill="#FFC0CF" transform="translate(330,421)"/>
<path d="M0 0 C0.33 1.65 0.66 3.3 1 5 C-0.66220581 6.00739746 -2.33020674 7.00522955 -4 8 C-4.56589844 8.35964844 -5.13179687 8.71929687 -5.71484375 9.08984375 C-9.29099316 11.28874525 -11.77750868 12.51181713 -16 12 C-16.33 10.35 -16.66 8.7 -17 7 C-12.02368697 2.62687642 -6.82232737 -0.62021158 0 0 Z " fill="#FFB3C5" transform="translate(191,330)"/>
<path d="M0 0 C6.78982507 0.37035409 11.26884891 2.40476401 17 6 C17.042721 7.66611905 17.04063832 9.33382885 17 11 C16.67 11.33 16.34 11.66 16 12 C9.20913314 11.85551347 4.56662791 8.66254995 -1 5 C-0.67 3.35 -0.34 1.7 0 0 Z " fill="#FFB3C5" transform="translate(329,330)"/>
<path d="M0 0 C1.65 0.33 3.3 0.66 5 1 C5.625 3.375 5.625 3.375 6 6 C5.34 6.66 4.68 7.32 4 8 C1.375 7.625 1.375 7.625 -1 7 C-1.625 5.1875 -1.625 5.1875 -2 3 C-1.34 2.01 -0.68 1.02 0 0 Z " fill="#D7D7D7" transform="translate(327,140)"/>
<path d="M0 0 C0.625 2.375 0.625 2.375 1 5 C0.34 5.66 -0.32 6.32 -1 7 C-4.53571429 6.46428571 -4.53571429 6.46428571 -6 5 C-6.04063832 3.33382885 -6.042721 1.66611905 -6 0 C-3.50907189 -1.24546405 -2.58919267 -0.7767578 0 0 Z " fill="#E3E3E3" transform="translate(199,141)"/>
</svg>
